<svg xmlns="http://www.w3.org/2000/svg" width="1200" height="1040" viewBox="0 0 1200 1040">
<defs>
  <linearGradient id="bg" x1="0" x2="1" y1="0" y2="1">
    <stop offset="0%" stop-color="#07111f"/>
    <stop offset="55%" stop-color="#0b1728"/>
    <stop offset="100%" stop-color="#020617"/>
  </linearGradient>
  <filter id="softShadow" x="-20%" y="-20%" width="140%" height="140%">
    <feDropShadow dx="0" dy="10" stdDeviation="10" flood-color="#000000" flood-opacity="0.28"/>
  </filter>
</defs>

<rect width="1200" height="1040" fill="url(#bg)"/>
<circle cx="1040" cy="130" r="250" fill="#0ea5e9" opacity="0.10"/>
<circle cx="120" cy="990" r="240" fill="#38bdf8" opacity="0.06"/>

<rect x="44" y="42" width="1112" height="956" rx="24" fill="none" stroke="#263b58"/>

<text x="70" y="94" font-size="16" font-weight="900" fill="#38bdf8" letter-spacing="7">TÖRÉSVONALAK MONITOR</text>
<text x="70" y="151" font-size="40" font-weight="900" fill="#ffffff">14 Day Armed Incident Brief</text>
<text x="70" y="190" font-size="19" font-weight="700" fill="#94a3b8">2026-06-17 – 2026-06-30 • OSINT-based strategic overview</text>

<rect x="820" y="70" width="310" height="130" rx="18" fill="#111827" stroke="#263b58" filter="url(#softShadow)"/>
<text x="846" y="104" font-size="12" font-weight="900" fill="#94a3b8">TOTAL INCIDENTS</text>
<text x="846" y="157" font-size="48" font-weight="900" fill="#ffffff">9939</text>
<text x="994" y="109" font-size="12" font-weight="900" fill="#94a3b8">MAIN REGION</text>
<text x="994" y="136" font-size="18" font-weight="900" fill="#38bdf8">Egyéb térségek</text>
<text x="994" y="164" font-size="14" font-weight="800" fill="#cbd5e1">United States</text>

<rect x="70" y="226" width="1060" height="1" fill="#263b58"/>
<text x="70" y="252" font-size="13" font-weight="900" fill="#94a3b8" letter-spacing="2">FOCUS REGIONS</text>


<g>
  <rect x="70" y="286" width="365" height="300" rx="16" fill="#111827" stroke="#263b58"/>
  <rect x="70" y="286" width="365" height="50" rx="16" fill="#12324d"/>
  <rect x="70" y="321" width="365" height="15" fill="#12324d"/>
  <rect x="70" y="286" width="6" height="300" rx="3" fill="#38bdf8"/>
  <text x="94" y="318" font-size="17" font-weight="900" fill="#e0f2fe" letter-spacing="1">EUROPEAN UNION</text>

  <text x="96" y="388" font-size="42" font-weight="900" fill="#ffffff">567</text>
  <text x="192" y="384" font-size="13" font-weight="800" fill="#94a3b8">incidents</text>

  <line x1="94" y1="412" x2="410" y2="412" stroke="#263b58"/>

  <text x="94" y="440" font-size="11" font-weight="900" fill="#38bdf8">MAIN ATTACK TYPE</text>
  <text x="94" y="464" font-size="15" font-weight="800" fill="#f8fafc">Fegyveres összecsapás</text>

  <line x1="94" y1="482" x2="410" y2="482" stroke="#1f334d"/>

  <text x="94" y="506" font-size="10" font-weight="900" fill="#38bdf8" letter-spacing="0.8">LOCATION FOCUS</text>
  
<text x="96" y="526" font-size="12" font-weight="700" fill="#cbd5e1">1. Hamburg, Hamburg, Germany</text>
<text x="400" y="526" text-anchor="end" font-size="12" font-weight="900" fill="#e0f2fe">3</text>

<text x="96" y="551" font-size="12" font-weight="700" fill="#cbd5e1">2. Germany</text>
<text x="400" y="551" text-anchor="end" font-size="12" font-weight="900" fill="#e0f2fe">3</text>

<text x="96" y="576" font-size="12" font-weight="700" fill="#cbd5e1">3. Paris, France (general), Fran…</text>
<text x="400" y="576" text-anchor="end" font-size="12" font-weight="900" fill="#e0f2fe">3</text>

</g>

<g>
  <rect x="455" y="286" width="365" height="300" rx="16" fill="#111827" stroke="#263b58"/>
  <rect x="455" y="286" width="365" height="50" rx="16" fill="#12324d"/>
  <rect x="455" y="321" width="365" height="15" fill="#12324d"/>
  <rect x="455" y="286" width="6" height="300" rx="3" fill="#38bdf8"/>
  <text x="479" y="318" font-size="17" font-weight="900" fill="#e0f2fe" letter-spacing="1">UKRAINE</text>

  <text x="481" y="388" font-size="42" font-weight="900" fill="#ffffff">221</text>
  <text x="577" y="384" font-size="13" font-weight="800" fill="#94a3b8">incidents</text>

  <line x1="479" y1="412" x2="795" y2="412" stroke="#263b58"/>

  <text x="479" y="440" font-size="11" font-weight="900" fill="#38bdf8">MAIN ATTACK TYPE</text>
  <text x="479" y="464" font-size="15" font-weight="800" fill="#f8fafc">Robbantás / IED</text>

  <line x1="479" y1="482" x2="795" y2="482" stroke="#1f334d"/>

  <text x="479" y="506" font-size="10" font-weight="900" fill="#38bdf8" letter-spacing="0.8">LOCATION FOCUS</text>
  
<text x="481" y="526" font-size="12" font-weight="700" fill="#cbd5e1">1. Kyiv, Kyyiv, Misto, Ukraine</text>
<text x="785" y="526" text-anchor="end" font-size="12" font-weight="900" fill="#e0f2fe">3</text>

<text x="481" y="551" font-size="12" font-weight="700" fill="#cbd5e1">2. Crimea, Krym, Avtonomna Respu…</text>
<text x="785" y="551" text-anchor="end" font-size="12" font-weight="900" fill="#e0f2fe">3</text>

<text x="481" y="576" font-size="12" font-weight="700" fill="#cbd5e1">3. Kiev, Ukraine (general), Ukra…</text>
<text x="785" y="576" text-anchor="end" font-size="12" font-weight="900" fill="#e0f2fe">3</text>

</g>

<g>
  <rect x="70" y="620" width="365" height="300" rx="16" fill="#111827" stroke="#263b58"/>
  <rect x="70" y="620" width="365" height="50" rx="16" fill="#12324d"/>
  <rect x="70" y="655" width="365" height="15" fill="#12324d"/>
  <rect x="70" y="620" width="6" height="300" rx="3" fill="#38bdf8"/>
  <text x="94" y="652" font-size="17" font-weight="900" fill="#e0f2fe" letter-spacing="1">BALKANS</text>

  <text x="96" y="722" font-size="42" font-weight="900" fill="#ffffff">78</text>
  <text x="192" y="718" font-size="13" font-weight="800" fill="#94a3b8">incidents</text>

  <line x1="94" y1="746" x2="410" y2="746" stroke="#263b58"/>

  <text x="94" y="774" font-size="11" font-weight="900" fill="#38bdf8">MAIN ATTACK TYPE</text>
  <text x="94" y="798" font-size="15" font-weight="800" fill="#f8fafc">Fegyveres összecsapás</text>

  <line x1="94" y1="816" x2="410" y2="816" stroke="#1f334d"/>

  <text x="94" y="840" font-size="10" font-weight="900" fill="#38bdf8" letter-spacing="0.8">LOCATION FOCUS</text>
  
<text x="96" y="860" font-size="12" font-weight="700" fill="#cbd5e1">1. Turkey</text>
<text x="400" y="860" text-anchor="end" font-size="12" font-weight="900" fill="#e0f2fe">3</text>

<text x="96" y="885" font-size="12" font-weight="700" fill="#cbd5e1">2. Serbia</text>
<text x="400" y="885" text-anchor="end" font-size="12" font-weight="900" fill="#e0f2fe">3</text>

<text x="96" y="910" font-size="12" font-weight="700" fill="#cbd5e1">3. Albania</text>
<text x="400" y="910" text-anchor="end" font-size="12" font-weight="900" fill="#e0f2fe">3</text>

</g>

<g>
  <rect x="455" y="620" width="365" height="300" rx="16" fill="#111827" stroke="#263b58"/>
  <rect x="455" y="620" width="365" height="50" rx="16" fill="#12324d"/>
  <rect x="455" y="655" width="365" height="15" fill="#12324d"/>
  <rect x="455" y="620" width="6" height="300" rx="3" fill="#38bdf8"/>
  <text x="479" y="652" font-size="17" font-weight="900" fill="#e0f2fe" letter-spacing="1">MIDDLE EAST</text>

  <text x="481" y="722" font-size="42" font-weight="900" fill="#ffffff">875</text>
  <text x="577" y="718" font-size="13" font-weight="800" fill="#94a3b8">incidents</text>

  <line x1="479" y1="746" x2="795" y2="746" stroke="#263b58"/>

  <text x="479" y="774" font-size="11" font-weight="900" fill="#38bdf8">MAIN ATTACK TYPE</text>
  <text x="479" y="798" font-size="15" font-weight="800" fill="#f8fafc">Fegyveres összecsapás</text>

  <line x1="479" y1="816" x2="795" y2="816" stroke="#1f334d"/>

  <text x="479" y="840" font-size="10" font-weight="900" fill="#38bdf8" letter-spacing="0.8">LOCATION FOCUS</text>
  
<text x="481" y="860" font-size="12" font-weight="700" fill="#cbd5e1">1. Israel</text>
<text x="785" y="860" text-anchor="end" font-size="12" font-weight="900" fill="#e0f2fe">3</text>

<text x="481" y="885" font-size="12" font-weight="700" fill="#cbd5e1">2. Gaza, Israel (general), Israel</text>
<text x="785" y="885" text-anchor="end" font-size="12" font-weight="900" fill="#e0f2fe">3</text>

<text x="481" y="910" font-size="12" font-weight="700" fill="#cbd5e1">3. West Bank</text>
<text x="785" y="910" text-anchor="end" font-size="12" font-weight="900" fill="#e0f2fe">3</text>

</g>


<rect x="840" y="286" width="290" height="300" rx="16" fill="#111827" stroke="#263b58"/>
<rect x="840" y="286" width="290" height="50" rx="16" fill="#12324d"/>
<rect x="840" y="321" width="290" height="15" fill="#12324d"/>
<rect x="840" y="286" width="6" height="300" rx="3" fill="#38bdf8"/>
<text x="864" y="318" font-size="16" font-weight="900" fill="#e0f2fe" letter-spacing="1">STRATEGIC HOTSPOTS</text>

<text x="864" y="378" font-size="13" font-weight="700" fill="#cbd5e1">1. Colorado, United Stat…</text>
<text x="1109" y="378" text-anchor="end" font-size="13" font-weight="900" fill="#e0f2fe">3</text>

<text x="864" y="409" font-size="13" font-weight="700" fill="#cbd5e1">2. California, United St…</text>
<text x="1109" y="409" text-anchor="end" font-size="13" font-weight="900" fill="#e0f2fe">3</text>

<text x="864" y="440" font-size="13" font-weight="700" fill="#cbd5e1">3. White House, District…</text>
<text x="1109" y="440" text-anchor="end" font-size="13" font-weight="900" fill="#e0f2fe">3</text>

<text x="864" y="471" font-size="13" font-weight="700" fill="#cbd5e1">4. New York, United Stat…</text>
<text x="1109" y="471" text-anchor="end" font-size="13" font-weight="900" fill="#e0f2fe">3</text>

<text x="864" y="502" font-size="13" font-weight="700" fill="#cbd5e1">5. Hamburg, Hamburg, Ger…</text>
<text x="1109" y="502" text-anchor="end" font-size="13" font-weight="900" fill="#e0f2fe">3</text>

<text x="864" y="533" font-size="13" font-weight="700" fill="#cbd5e1">6. Israel</text>
<text x="1109" y="533" text-anchor="end" font-size="13" font-weight="900" fill="#e0f2fe">3</text>


<rect x="840" y="620" width="290" height="300" rx="16" fill="#111827" stroke="#263b58"/>
<rect x="840" y="620" width="290" height="50" rx="16" fill="#12324d"/>
<rect x="840" y="655" width="290" height="15" fill="#12324d"/>
<rect x="840" y="620" width="6" height="300" rx="3" fill="#38bdf8"/>
<text x="864" y="652" font-size="16" font-weight="900" fill="#e0f2fe" letter-spacing="1">EARLY WARNING</text>

<circle cx="865" cy="678" r="5" fill="#38bdf8"/>
<text x="882" y="683" font-size="13" font-weight="700" fill="#cbd5e1">Main pressure zone: Egyéb térségek</text>

<circle cx="865" cy="713" r="5" fill="#38bdf8"/>
<text x="882" y="718" font-size="13" font-weight="700" fill="#cbd5e1">Repeated hotspot: Colorado, United States</text>

<circle cx="865" cy="748" r="5" fill="#38bdf8"/>
<text x="882" y="753" font-size="13" font-weight="700" fill="#cbd5e1">Dominant pattern: Fegyveres összecsapás</text>


<rect x="70" y="950" width="1060" height="42" rx="14" fill="#111827" stroke="#263b58"/>
<text x="92" y="976" font-size="13" font-weight="900" fill="#38bdf8">Method note:</text>
<text x="190" y="976" font-size="13" fill="#94a3b8">Automated OSINT summary. Actor, motive and intent require source-level verification.</text>
<text x="955" y="976" font-size="14" font-weight="900" fill="#38bdf8">Intelligence Card</text>
</svg>