<svg xmlns="http://www.w3.org/2000/svg" width="900" height="420" viewBox="0 0 900 420">
<rect width="100%" height="100%" fill="#ffffff"/>
<text x="450.0" y="36" text-anchor="middle" font-size="24" font-weight="700" fill="#0f172a">7 napos incidensaktivitási trend</text><line x1="70" y1="350" x2="850" y2="350" stroke="#cbd5e1" stroke-width="2"/><line x1="70" y1="70" x2="70" y2="350" stroke="#cbd5e1" stroke-width="2"/><polyline points="70.0,70.0 200.0,88.98305084745766 330.0,149.04661016949154 460.0,172.77542372881356 590.0,98.77118644067798 720.0,82.16101694915255 850.0,74.15254237288133" fill="none" stroke="#2563eb" stroke-width="4" stroke-linecap="round" stroke-linejoin="round"/><circle cx="70.0" cy="70.0" r="6" fill="#2563eb"/><text x="70.0" y="58.0" text-anchor="middle" font-size="14" font-weight="700" fill="#0f172a">1888</text><text x="70.0" y="380" text-anchor="middle" font-size="13" fill="#334155">06-04</text><circle cx="200.0" cy="88.98305084745766" r="6" fill="#2563eb"/><text x="200.0" y="76.98305084745766" text-anchor="middle" font-size="14" font-weight="700" fill="#0f172a">1760</text><text x="200.0" y="380" text-anchor="middle" font-size="13" fill="#334155">06-05</text><circle cx="330.0" cy="149.04661016949154" r="6" fill="#2563eb"/><text x="330.0" y="137.04661016949154" text-anchor="middle" font-size="14" font-weight="700" fill="#0f172a">1355</text><text x="330.0" y="380" text-anchor="middle" font-size="13" fill="#334155">06-06</text><circle cx="460.0" cy="172.77542372881356" r="6" fill="#2563eb"/><text x="460.0" y="160.77542372881356" text-anchor="middle" font-size="14" font-weight="700" fill="#0f172a">1195</text><text x="460.0" y="380" text-anchor="middle" font-size="13" fill="#334155">06-07</text><circle cx="590.0" cy="98.77118644067798" r="6" fill="#2563eb"/><text x="590.0" y="86.77118644067798" text-anchor="middle" font-size="14" font-weight="700" fill="#0f172a">1694</text><text x="590.0" y="380" text-anchor="middle" font-size="13" fill="#334155">06-08</text><circle cx="720.0" cy="82.16101694915255" r="6" fill="#2563eb"/><text x="720.0" y="70.16101694915255" text-anchor="middle" font-size="14" font-weight="700" fill="#0f172a">1806</text><text x="720.0" y="380" text-anchor="middle" font-size="13" fill="#334155">06-09</text><circle cx="850.0" cy="74.15254237288133" r="6" fill="#2563eb"/><text x="850.0" y="62.15254237288133" text-anchor="middle" font-size="14" font-weight="700" fill="#0f172a">1860</text><text x="850.0" y="380" text-anchor="middle" font-size="13" fill="#334155">06-10</text>
</svg>