<svg xmlns="http://www.w3.org/2000/svg" width="900" height="420" viewBox="0 0 900 420">
<rect width="100%" height="100%" fill="#ffffff"/>
<text x="450.0" y="36" text-anchor="middle" font-size="24" font-weight="700" fill="#0f172a">7 napos incidensaktivitási trend</text><line x1="70" y1="350" x2="850" y2="350" stroke="#cbd5e1" stroke-width="2"/><line x1="70" y1="70" x2="70" y2="350" stroke="#cbd5e1" stroke-width="2"/><polyline points="70.0,153.34203655352482 200.0,171.03394255874676 330.0,133.0182767624021 460.0,88.86161879895559 590.0,70.0 720.0,85.7911227154047 850.0,88.56919060052223" fill="none" stroke="#2563eb" stroke-width="4" stroke-linecap="round" stroke-linejoin="round"/><circle cx="70.0" cy="153.34203655352482" r="6" fill="#2563eb"/><text x="70.0" y="141.34203655352482" text-anchor="middle" font-size="14" font-weight="700" fill="#0f172a">1345</text><text x="70.0" y="380" text-anchor="middle" font-size="13" fill="#334155">09-05</text><circle cx="200.0" cy="171.03394255874676" r="6" fill="#2563eb"/><text x="200.0" y="159.03394255874676" text-anchor="middle" font-size="14" font-weight="700" fill="#0f172a">1224</text><text x="200.0" y="380" text-anchor="middle" font-size="13" fill="#334155">09-06</text><circle cx="330.0" cy="133.0182767624021" r="6" fill="#2563eb"/><text x="330.0" y="121.01827676240211" text-anchor="middle" font-size="14" font-weight="700" fill="#0f172a">1484</text><text x="330.0" y="380" text-anchor="middle" font-size="13" fill="#334155">09-07</text><circle cx="460.0" cy="88.86161879895559" r="6" fill="#2563eb"/><text x="460.0" y="76.86161879895559" text-anchor="middle" font-size="14" font-weight="700" fill="#0f172a">1786</text><text x="460.0" y="380" text-anchor="middle" font-size="13" fill="#334155">09-08</text><circle cx="590.0" cy="70.0" r="6" fill="#2563eb"/><text x="590.0" y="58.0" text-anchor="middle" font-size="14" font-weight="700" fill="#0f172a">1915</text><text x="590.0" y="380" text-anchor="middle" font-size="13" fill="#334155">09-09</text><circle cx="720.0" cy="85.7911227154047" r="6" fill="#2563eb"/><text x="720.0" y="73.7911227154047" text-anchor="middle" font-size="14" font-weight="700" fill="#0f172a">1807</text><text x="720.0" y="380" text-anchor="middle" font-size="13" fill="#334155">09-10</text><circle cx="850.0" cy="88.56919060052223" r="6" fill="#2563eb"/><text x="850.0" y="76.56919060052223" text-anchor="middle" font-size="14" font-weight="700" fill="#0f172a">1788</text><text x="850.0" y="380" text-anchor="middle" font-size="13" fill="#334155">09-11</text>
</svg>