<svg xmlns="http://www.w3.org/2000/svg" width="900" height="420" viewBox="0 0 900 420">
<rect width="100%" height="100%" fill="#ffffff"/>
<text x="450.0" y="36" text-anchor="middle" font-size="24" font-weight="700" fill="#0f172a">7 napos incidensaktivitási trend</text><line x1="70" y1="350" x2="850" y2="350" stroke="#cbd5e1" stroke-width="2"/><line x1="70" y1="70" x2="70" y2="350" stroke="#cbd5e1" stroke-width="2"/><polyline points="70.0,90.08762322015332 200.0,89.01423877327494 330.0,171.0514786418401 460.0,161.0843373493976 590.0,102.35487404162103 720.0,76.59364731653886 850.0,70.0" fill="none" stroke="#2563eb" stroke-width="4" stroke-linecap="round" stroke-linejoin="round"/><circle cx="70.0" cy="90.08762322015332" r="6" fill="#2563eb"/><text x="70.0" y="78.08762322015332" text-anchor="middle" font-size="14" font-weight="700" fill="#0f172a">1695</text><text x="70.0" y="380" text-anchor="middle" font-size="13" fill="#334155">09-24</text><circle cx="200.0" cy="89.01423877327494" r="6" fill="#2563eb"/><text x="200.0" y="77.01423877327494" text-anchor="middle" font-size="14" font-weight="700" fill="#0f172a">1702</text><text x="200.0" y="380" text-anchor="middle" font-size="13" fill="#334155">09-25</text><circle cx="330.0" cy="171.0514786418401" r="6" fill="#2563eb"/><text x="330.0" y="159.0514786418401" text-anchor="middle" font-size="14" font-weight="700" fill="#0f172a">1167</text><text x="330.0" y="380" text-anchor="middle" font-size="13" fill="#334155">09-26</text><circle cx="460.0" cy="161.0843373493976" r="6" fill="#2563eb"/><text x="460.0" y="149.0843373493976" text-anchor="middle" font-size="14" font-weight="700" fill="#0f172a">1232</text><text x="460.0" y="380" text-anchor="middle" font-size="13" fill="#334155">09-27</text><circle cx="590.0" cy="102.35487404162103" r="6" fill="#2563eb"/><text x="590.0" y="90.35487404162103" text-anchor="middle" font-size="14" font-weight="700" fill="#0f172a">1615</text><text x="590.0" y="380" text-anchor="middle" font-size="13" fill="#334155">09-28</text><circle cx="720.0" cy="76.59364731653886" r="6" fill="#2563eb"/><text x="720.0" y="64.59364731653886" text-anchor="middle" font-size="14" font-weight="700" fill="#0f172a">1783</text><text x="720.0" y="380" text-anchor="middle" font-size="13" fill="#334155">09-29</text><circle cx="850.0" cy="70.0" r="6" fill="#2563eb"/><text x="850.0" y="58.0" text-anchor="middle" font-size="14" font-weight="700" fill="#0f172a">1826</text><text x="850.0" y="380" text-anchor="middle" font-size="13" fill="#334155">09-30</text>
</svg>