<svg xmlns="http://www.w3.org/2000/svg" width="900" height="420" viewBox="0 0 900 420">
<rect width="100%" height="100%" fill="#ffffff"/>
<text x="450.0" y="36" text-anchor="middle" font-size="24" font-weight="700" fill="#0f172a">7 napos incidensaktivitási trend</text><line x1="70" y1="350" x2="850" y2="350" stroke="#cbd5e1" stroke-width="2"/><line x1="70" y1="70" x2="70" y2="350" stroke="#cbd5e1" stroke-width="2"/><polyline points="70.0,91.86582809224319 200.0,152.9140461215933 330.0,177.42138364779876 460.0,102.57861635220124 590.0,83.79454926624737 720.0,70.0 850.0,82.91404612159329" fill="none" stroke="#2563eb" stroke-width="4" stroke-linecap="round" stroke-linejoin="round"/><circle cx="70.0" cy="91.86582809224319" r="6" fill="#2563eb"/><text x="70.0" y="79.86582809224319" text-anchor="middle" font-size="14" font-weight="700" fill="#0f172a">1759</text><text x="70.0" y="380" text-anchor="middle" font-size="13" fill="#334155">07-17</text><circle cx="200.0" cy="152.9140461215933" r="6" fill="#2563eb"/><text x="200.0" y="140.9140461215933" text-anchor="middle" font-size="14" font-weight="700" fill="#0f172a">1343</text><text x="200.0" y="380" text-anchor="middle" font-size="13" fill="#334155">07-18</text><circle cx="330.0" cy="177.42138364779876" r="6" fill="#2563eb"/><text x="330.0" y="165.42138364779876" text-anchor="middle" font-size="14" font-weight="700" fill="#0f172a">1176</text><text x="330.0" y="380" text-anchor="middle" font-size="13" fill="#334155">07-19</text><circle cx="460.0" cy="102.57861635220124" r="6" fill="#2563eb"/><text x="460.0" y="90.57861635220124" text-anchor="middle" font-size="14" font-weight="700" fill="#0f172a">1686</text><text x="460.0" y="380" text-anchor="middle" font-size="13" fill="#334155">07-20</text><circle cx="590.0" cy="83.79454926624737" r="6" fill="#2563eb"/><text x="590.0" y="71.79454926624737" text-anchor="middle" font-size="14" font-weight="700" fill="#0f172a">1814</text><text x="590.0" y="380" text-anchor="middle" font-size="13" fill="#334155">07-21</text><circle cx="720.0" cy="70.0" r="6" fill="#2563eb"/><text x="720.0" y="58.0" text-anchor="middle" font-size="14" font-weight="700" fill="#0f172a">1908</text><text x="720.0" y="380" text-anchor="middle" font-size="13" fill="#334155">07-22</text><circle cx="850.0" cy="82.91404612159329" r="6" fill="#2563eb"/><text x="850.0" y="70.91404612159329" text-anchor="middle" font-size="14" font-weight="700" fill="#0f172a">1820</text><text x="850.0" y="380" text-anchor="middle" font-size="13" fill="#334155">07-23</text>
</svg>