<svg xmlns="http://www.w3.org/2000/svg" width="900" height="420" viewBox="0 0 900 420">
<rect width="100%" height="100%" fill="#ffffff"/>
<text x="450.0" y="36" text-anchor="middle" font-size="24" font-weight="700" fill="#0f172a">7 napos incidensaktivitási trend</text><line x1="70" y1="350" x2="850" y2="350" stroke="#cbd5e1" stroke-width="2"/><line x1="70" y1="70" x2="70" y2="350" stroke="#cbd5e1" stroke-width="2"/><polyline points="70.0,70.0 200.0,95.80060422960725 330.0,153.74622356495468 460.0,170.80563947633433 590.0,98.19738167170192 720.0,96.50553877139981 850.0,95.65961732124876" fill="none" stroke="#2563eb" stroke-width="4" stroke-linecap="round" stroke-linejoin="round"/><circle cx="70.0" cy="70.0" r="6" fill="#2563eb"/><text x="70.0" y="58.0" text-anchor="middle" font-size="14" font-weight="700" fill="#0f172a">1986</text><text x="70.0" y="380" text-anchor="middle" font-size="13" fill="#334155">07-30</text><circle cx="200.0" cy="95.80060422960725" r="6" fill="#2563eb"/><text x="200.0" y="83.80060422960725" text-anchor="middle" font-size="14" font-weight="700" fill="#0f172a">1803</text><text x="200.0" y="380" text-anchor="middle" font-size="13" fill="#334155">07-31</text><circle cx="330.0" cy="153.74622356495468" r="6" fill="#2563eb"/><text x="330.0" y="141.74622356495468" text-anchor="middle" font-size="14" font-weight="700" fill="#0f172a">1392</text><text x="330.0" y="380" text-anchor="middle" font-size="13" fill="#334155">08-01</text><circle cx="460.0" cy="170.80563947633433" r="6" fill="#2563eb"/><text x="460.0" y="158.80563947633433" text-anchor="middle" font-size="14" font-weight="700" fill="#0f172a">1271</text><text x="460.0" y="380" text-anchor="middle" font-size="13" fill="#334155">08-02</text><circle cx="590.0" cy="98.19738167170192" r="6" fill="#2563eb"/><text x="590.0" y="86.19738167170192" text-anchor="middle" font-size="14" font-weight="700" fill="#0f172a">1786</text><text x="590.0" y="380" text-anchor="middle" font-size="13" fill="#334155">08-03</text><circle cx="720.0" cy="96.50553877139981" r="6" fill="#2563eb"/><text x="720.0" y="84.50553877139981" text-anchor="middle" font-size="14" font-weight="700" fill="#0f172a">1798</text><text x="720.0" y="380" text-anchor="middle" font-size="13" fill="#334155">08-04</text><circle cx="850.0" cy="95.65961732124876" r="6" fill="#2563eb"/><text x="850.0" y="83.65961732124876" text-anchor="middle" font-size="14" font-weight="700" fill="#0f172a">1804</text><text x="850.0" y="380" text-anchor="middle" font-size="13" fill="#334155">08-05</text>
</svg>