<svg xmlns="http://www.w3.org/2000/svg" width="900" height="420" viewBox="0 0 900 420">
<rect width="100%" height="100%" fill="#ffffff"/>
<text x="450.0" y="36" text-anchor="middle" font-size="24" font-weight="700" fill="#0f172a">Régiós bontás</text><text x="236" y="90" text-anchor="end" font-size="13" fill="#334155">Egyéb térségek</text><rect x="250" y="70" width="580" height="28" rx="7" fill="#2563eb"></rect><text x="840" y="90" font-size="14" font-weight="700" fill="#0f172a">923</text><text x="236" y="132" text-anchor="end" font-size="13" fill="#334155">Közel-Kelet</text><rect x="250" y="112" width="120" height="28" rx="7" fill="#2563eb"></rect><text x="380" y="132" font-size="14" font-weight="700" fill="#0f172a">191</text><text x="236" y="174" text-anchor="end" font-size="13" fill="#334155">Európa – egyéb</text><rect x="250" y="154" width="47" height="28" rx="7" fill="#2563eb"></rect><text x="307" y="174" font-size="14" font-weight="700" fill="#0f172a">75</text><text x="236" y="216" text-anchor="end" font-size="13" fill="#334155">Európai Unió</text><rect x="250" y="196" width="45" height="28" rx="7" fill="#2563eb"></rect><text x="305" y="216" font-size="14" font-weight="700" fill="#0f172a">73</text><text x="236" y="258" text-anchor="end" font-size="13" fill="#334155">Ukrajna</text><rect x="250" y="238" width="21" height="28" rx="7" fill="#2563eb"></rect><text x="281" y="258" font-size="14" font-weight="700" fill="#0f172a">35</text><text x="236" y="300" text-anchor="end" font-size="13" fill="#334155">Kelet-Európa / orosz–ukrán térség</text><rect x="250" y="280" width="20" height="28" rx="7" fill="#2563eb"></rect><text x="280" y="300" font-size="14" font-weight="700" fill="#0f172a">32</text>
</svg>