<svg xmlns="http://www.w3.org/2000/svg" width="900" height="420" viewBox="0 0 900 420">
<rect width="100%" height="100%" fill="#ffffff"/>
<text x="450.0" y="36" text-anchor="middle" font-size="24" font-weight="700" fill="#0f172a">7 napos incidensaktivitási trend</text><line x1="70" y1="350" x2="850" y2="350" stroke="#cbd5e1" stroke-width="2"/><line x1="70" y1="70" x2="70" y2="350" stroke="#cbd5e1" stroke-width="2"/><polyline points="70.0,87.96394485683987 200.0,148.83351007423116 330.0,172.58748674443268 460.0,98.50477200424177 590.0,81.87698833510075 720.0,73.11770943796392 850.0,70.0" fill="none" stroke="#2563eb" stroke-width="4" stroke-linecap="round" stroke-linejoin="round"/><circle cx="70.0" cy="87.96394485683987" r="6" fill="#2563eb"/><text x="70.0" y="75.96394485683987" text-anchor="middle" font-size="14" font-weight="700" fill="#0f172a">1765</text><text x="70.0" y="380" text-anchor="middle" font-size="13" fill="#334155">06-05</text><circle cx="200.0" cy="148.83351007423116" r="6" fill="#2563eb"/><text x="200.0" y="136.83351007423116" text-anchor="middle" font-size="14" font-weight="700" fill="#0f172a">1355</text><text x="200.0" y="380" text-anchor="middle" font-size="13" fill="#334155">06-06</text><circle cx="330.0" cy="172.58748674443268" r="6" fill="#2563eb"/><text x="330.0" y="160.58748674443268" text-anchor="middle" font-size="14" font-weight="700" fill="#0f172a">1195</text><text x="330.0" y="380" text-anchor="middle" font-size="13" fill="#334155">06-07</text><circle cx="460.0" cy="98.50477200424177" r="6" fill="#2563eb"/><text x="460.0" y="86.50477200424177" text-anchor="middle" font-size="14" font-weight="700" fill="#0f172a">1694</text><text x="460.0" y="380" text-anchor="middle" font-size="13" fill="#334155">06-08</text><circle cx="590.0" cy="81.87698833510075" r="6" fill="#2563eb"/><text x="590.0" y="69.87698833510075" text-anchor="middle" font-size="14" font-weight="700" fill="#0f172a">1806</text><text x="590.0" y="380" text-anchor="middle" font-size="13" fill="#334155">06-09</text><circle cx="720.0" cy="73.11770943796392" r="6" fill="#2563eb"/><text x="720.0" y="61.117709437963924" text-anchor="middle" font-size="14" font-weight="700" fill="#0f172a">1865</text><text x="720.0" y="380" text-anchor="middle" font-size="13" fill="#334155">06-10</text><circle cx="850.0" cy="70.0" r="6" fill="#2563eb"/><text x="850.0" y="58.0" text-anchor="middle" font-size="14" font-weight="700" fill="#0f172a">1886</text><text x="850.0" y="380" text-anchor="middle" font-size="13" fill="#334155">06-11</text>
</svg>