<svg xmlns="http://www.w3.org/2000/svg" width="900" height="420" viewBox="0 0 900 420">
<rect width="100%" height="100%" fill="#ffffff"/>
<text x="450.0" y="36" text-anchor="middle" font-size="24" font-weight="700" fill="#0f172a">7 napos incidensaktivitási trend</text><line x1="70" y1="350" x2="850" y2="350" stroke="#cbd5e1" stroke-width="2"/><line x1="70" y1="70" x2="70" y2="350" stroke="#cbd5e1" stroke-width="2"/><polyline points="70.0,84.90774907749079 200.0,82.84132841328415 330.0,72.95202952029518 460.0,70.0 590.0,94.79704797047972 720.0,167.12177121771217 850.0,174.05904059040589" fill="none" stroke="#2563eb" stroke-width="4" stroke-linecap="round" stroke-linejoin="round"/><circle cx="70.0" cy="84.90774907749079" r="6" fill="#2563eb"/><text x="70.0" y="72.90774907749079" text-anchor="middle" font-size="14" font-weight="700" fill="#0f172a">1796</text><text x="70.0" y="380" text-anchor="middle" font-size="13" fill="#334155">06-29</text><circle cx="200.0" cy="82.84132841328415" r="6" fill="#2563eb"/><text x="200.0" y="70.84132841328415" text-anchor="middle" font-size="14" font-weight="700" fill="#0f172a">1810</text><text x="200.0" y="380" text-anchor="middle" font-size="13" fill="#334155">06-30</text><circle cx="330.0" cy="72.95202952029518" r="6" fill="#2563eb"/><text x="330.0" y="60.952029520295184" text-anchor="middle" font-size="14" font-weight="700" fill="#0f172a">1877</text><text x="330.0" y="380" text-anchor="middle" font-size="13" fill="#334155">07-01</text><circle cx="460.0" cy="70.0" r="6" fill="#2563eb"/><text x="460.0" y="58.0" text-anchor="middle" font-size="14" font-weight="700" fill="#0f172a">1897</text><text x="460.0" y="380" text-anchor="middle" font-size="13" fill="#334155">07-02</text><circle cx="590.0" cy="94.79704797047972" r="6" fill="#2563eb"/><text x="590.0" y="82.79704797047972" text-anchor="middle" font-size="14" font-weight="700" fill="#0f172a">1729</text><text x="590.0" y="380" text-anchor="middle" font-size="13" fill="#334155">07-03</text><circle cx="720.0" cy="167.12177121771217" r="6" fill="#2563eb"/><text x="720.0" y="155.12177121771217" text-anchor="middle" font-size="14" font-weight="700" fill="#0f172a">1239</text><text x="720.0" y="380" text-anchor="middle" font-size="13" fill="#334155">07-04</text><circle cx="850.0" cy="174.05904059040589" r="6" fill="#2563eb"/><text x="850.0" y="162.05904059040589" text-anchor="middle" font-size="14" font-weight="700" fill="#0f172a">1192</text><text x="850.0" y="380" text-anchor="middle" font-size="13" fill="#334155">07-05</text>
</svg>