<svg xmlns="http://www.w3.org/2000/svg" width="900" height="420" viewBox="0 0 900 420">
<rect width="100%" height="100%" fill="#ffffff"/>
<text x="450.0" y="36" text-anchor="middle" font-size="24" font-weight="700" fill="#0f172a">7 napos incidensaktivitási trend</text><line x1="70" y1="350" x2="850" y2="350" stroke="#cbd5e1" stroke-width="2"/><line x1="70" y1="70" x2="70" y2="350" stroke="#cbd5e1" stroke-width="2"/><polyline points="70.0,70.0 200.0,145.4419595314164 330.0,167.35889243876463 460.0,89.08413205537806 590.0,81.9275825346113 720.0,90.87326943556974 850.0,76.41107561235356" fill="none" stroke="#2563eb" stroke-width="4" stroke-linecap="round" stroke-linejoin="round"/><circle cx="70.0" cy="70.0" r="6" fill="#2563eb"/><text x="70.0" y="58.0" text-anchor="middle" font-size="14" font-weight="700" fill="#0f172a">1878</text><text x="70.0" y="380" text-anchor="middle" font-size="13" fill="#334155">08-14</text><circle cx="200.0" cy="145.4419595314164" r="6" fill="#2563eb"/><text x="200.0" y="133.4419595314164" text-anchor="middle" font-size="14" font-weight="700" fill="#0f172a">1372</text><text x="200.0" y="380" text-anchor="middle" font-size="13" fill="#334155">08-15</text><circle cx="330.0" cy="167.35889243876463" r="6" fill="#2563eb"/><text x="330.0" y="155.35889243876463" text-anchor="middle" font-size="14" font-weight="700" fill="#0f172a">1225</text><text x="330.0" y="380" text-anchor="middle" font-size="13" fill="#334155">08-16</text><circle cx="460.0" cy="89.08413205537806" r="6" fill="#2563eb"/><text x="460.0" y="77.08413205537806" text-anchor="middle" font-size="14" font-weight="700" fill="#0f172a">1750</text><text x="460.0" y="380" text-anchor="middle" font-size="13" fill="#334155">08-17</text><circle cx="590.0" cy="81.9275825346113" r="6" fill="#2563eb"/><text x="590.0" y="69.9275825346113" text-anchor="middle" font-size="14" font-weight="700" fill="#0f172a">1798</text><text x="590.0" y="380" text-anchor="middle" font-size="13" fill="#334155">08-18</text><circle cx="720.0" cy="90.87326943556974" r="6" fill="#2563eb"/><text x="720.0" y="78.87326943556974" text-anchor="middle" font-size="14" font-weight="700" fill="#0f172a">1738</text><text x="720.0" y="380" text-anchor="middle" font-size="13" fill="#334155">08-19</text><circle cx="850.0" cy="76.41107561235356" r="6" fill="#2563eb"/><text x="850.0" y="64.41107561235356" text-anchor="middle" font-size="14" font-weight="700" fill="#0f172a">1835</text><text x="850.0" y="380" text-anchor="middle" font-size="13" fill="#334155">08-20</text>
</svg>